<?xml version="1.0" standalone="no"?>
<!DOCTYPE svg PUBLIC "-//W3C//DTD SVG 20010904//EN"
 "http://www.w3.org/TR/2001/REC-SVG-20010904/DTD/svg10.dtd">
<svg version="1.0" xmlns="http://www.w3.org/2000/svg"
 width="164.000000pt" height="212.000000pt" viewBox="0 0 164.000000 212.000000"
 preserveAspectRatio="xMidYMid meet">

<g transform="translate(0.000000,212.000000) scale(0.100000,-0.100000)"
fill="#000000" stroke="none">
<path d="M791 2062 c-42 -65 -97 -188 -117 -259 -9 -32 -19 -113 -21 -180 -6
-130 9 -230 48 -320 10 -25 19 -46 19 -48 0 -2 -28 25 -62 59 -84 84 -149 110
-273 111 -81 0 -97 -3 -157 -32 -37 -17 -88 -52 -113 -78 -45 -45 -95 -132
-95 -167 0 -10 -4 -18 -10 -18 -6 0 -10 -28 -10 -65 0 -37 4 -65 10 -65 6 0
10 -8 10 -18 0 -35 61 -140 104 -180 50 -46 124 -86 176 -96 30 -6 32 -5 15 5
-37 22 -77 64 -97 103 -16 31 -19 54 -16 112 3 62 8 79 35 116 18 26 52 54 84
71 104 55 224 23 290 -78 14 -22 68 -138 120 -257 52 -120 96 -218 99 -218 3
0 50 105 105 233 69 160 111 244 135 271 109 122 294 93 372 -58 31 -60 23
-161 -18 -218 -16 -23 -45 -53 -64 -67 l-35 -24 30 7 c108 24 216 111 262 212
22 49 24 65 21 157 -2 81 -8 111 -26 148 -32 66 -107 137 -182 173 -59 28 -74
31 -160 31 -87 0 -101 -3 -161 -32 -42 -21 -85 -53 -119 -89 -29 -31 -49 -48
-45 -37 79 195 86 395 22 581 -31 93 -121 262 -138 262 -4 0 -21 -22 -38 -48z"/>
<path d="M406 740 c16 -426 18 -444 52 -513 52 -105 147 -176 282 -212 49 -13
49 -13 35 9 -7 11 -90 201 -185 421 -94 220 -175 406 -180 415 -5 9 -7 -42 -4
-120z"/>
<path d="M1091 497 c-85 -199 -169 -392 -187 -429 l-32 -66 51 14 c187 54 299
173 313 334 8 98 20 510 14 510 -3 0 -74 -163 -159 -363z"/>
</g>
</svg>
