<svg xmlns="assets/img/logo/logo.svg (1).svg" x="0px" y="0px"
width="160" height="164"
viewBox="0 0 172 172"
style=" fill:#000000;"><defs><linearGradient x1="86" y1="128.70438" x2="86" y2="161.25" gradientUnits="userSpaceOnUse" id="color-1_sQ0jBs9KfjXV_gr1"><stop offset="0" stop-color="#8ab4ff"></stop><stop offset="1" stop-color="#e492ff"></stop></linearGradient><linearGradient x1="86" y1="13.43481" x2="86" y2="145.13306" gradientUnits="userSpaceOnUse" id="color-2_sQ0jBs9KfjXV_gr2"><stop offset="0" stop-color="#1a6dff"></stop><stop offset="1" stop-color="#c822ff"></stop></linearGradient></defs><g transform="translate(25.8,25.8) scale(0.7,0.7)"><g fill="none" fill-rule="nonzero" stroke="none" stroke-width="none" stroke-linecap="butt" stroke-linejoin="miter" stroke-miterlimit="10" stroke-dasharray="" stroke-dashoffset="0" font-family="none" font-weight="none" font-size="none" text-anchor="none" style="mix-blend-mode: normal"><path d="M0,172v-172h172v172z" fill="none" stroke="none" stroke-width="1"></path><g stroke="none" stroke-width="1"><path d="M149.9625,128.70438c-9.3525,18.8125 -37.625,32.54563 -63.9625,32.54563c-26.3375,0 -54.61,-13.73312 -63.9625,-32.54562c17.97938,20.39813 38.72688,25.61188 50.06812,26.84813c5.02563,0.56438 9.94375,-1.80062 12.73875,-6.02l1.15563,-1.72l1.15563,1.72c2.795,4.21938 7.71312,6.58438 12.73875,6.02c11.34125,-1.23625 32.08875,-6.45 50.06812,-26.84813z" fill="url(#color-1_sQ0jBs9KfjXV_gr1)"></path><path d="M94.23181,145.125c-2.43219,0 -4.54456,-1.76031 -5.01756,-4.18981c-0.50794,-2.65256 1.032,-5.21913 3.57975,-5.98237v0c-0.04031,0.00269 12.0185,-6.08181 12.0185,-19.39031c0,-7.36912 -13.42944,-41.00319 -21.18556,-59.54425c-6.04956,18.61631 -16.43944,52.116 -16.43944,59.54425c0,13.32731 12.08569,19.40644 12.20663,19.4575c2.35963,0.69606 3.89956,3.26531 3.38894,5.90981c-0.516,2.64719 -2.93206,4.54188 -5.65987,4.1495c-13.89706,-1.591 -28.90137,-9.12675 -36.50431,-15.74606c-1.20669,-1.04812 -2.46175,-1.94844 -3.73294,-2.67406c-1.6125,-0.92181 -3.64694,-1.42975 -6.2135,-1.55338c-1.09919,-0.05644 -2.01294,-0.38163 -2.71438,-0.97288c-1.70656,-1.42169 -2.31125,-3.79206 -1.50231,-5.891c4.38331,-11.29556 0.61275,-17.67569 0.44881,-17.94175c-1.21475,-1.94844 -1.01319,-4.50694 0.48913,-6.22425c1.54263,-1.76031 4.06619,-2.25481 6.13825,-1.19862l1.44588,0.74175c2.50206,1.29269 10.83062,1.5695 13.71431,0.46225c2.77081,-1.06425 4.9235,-3.21425 6.05763,-6.04419l26.48531,-71.337c0.73369,-1.97531 2.58806,-3.25456 4.72731,-3.26262c2.20106,-0.01613 4.03662,1.26312 4.79181,3.24113l26.51756,71.42569c1.10994,2.76544 3.26263,4.91275 6.03613,5.97969c2.87562,1.11263 11.20687,0.83581 13.71162,-0.45956l1.43781,-0.73906c2.0855,-1.09112 4.63594,-0.58588 6.18125,1.22013c1.50231,1.74956 1.67162,4.32419 0.41119,6.25919c-0.12631,0.20694 -3.8915,6.58438 0.48644,17.86919c0.817,2.09356 0.215,4.46663 -1.49694,5.90444c-0.71756,0.59394 -1.62325,0.91644 -2.71169,0.97019c-2.56387,0.12094 -4.59562,0.62888 -6.21619,1.55338c-1.26581,0.72563 -2.52088,1.62325 -3.73562,2.67944c-7.60563,6.61663 -22.60994,14.15506 -36.56613,15.75144c-0.24456,0.02419 -0.41119,0.03225 -0.57781,0.03225zM31.6265,119.7765c3.14438,0.23381 5.72975,0.95944 7.92813,2.21181c1.58025,0.90569 3.12287,2.01025 4.59294,3.2895c6.622,5.76469 20.14819,12.6205 32.59938,14.33781c-3.43731,-1.60981 -14.93444,-9.59169 -14.93444,-24.05312c0,-11.05906 18.17556,-65.71744 18.94956,-68.03675c0.35206,-1.05887 1.32225,-1.78988 2.43756,-1.83556c1.07769,-0.06181 2.14194,0.59931 2.58,1.62594c2.50206,5.82919 24.40787,57.26256 24.40787,68.24638c0,14.02606 -10.81987,21.95956 -14.71675,24.02625c12.36787,-1.75225 25.78925,-8.57044 32.379,-14.30556c1.47813,-1.28463 3.02344,-2.39187 4.59563,-3.2895c2.21181,-1.26313 4.81062,-1.98875 7.92544,-2.2145c-4.46662,-11.86531 -1.29538,-19.5865 -0.16931,-21.75531l-0.72025,0.37356c-4.21937,2.18494 -14.09325,2.24944 -18.10837,0.69875c-4.17906,-1.60981 -7.4175,-4.82675 -9.116,-9.05956l-26.25687,-70.72156l-26.23269,70.65438c-1.72269,4.3 -4.96113,7.51694 -9.14288,9.12675c-4.0205,1.53994 -13.889,1.48081 -18.10837,-0.70144l-0.84119,-0.43269c1.07769,1.806 4.558,9.57825 -0.04838,21.81444zM140.92713,97.653v0z" fill="url(#color-2_sQ0jBs9KfjXV_gr2)"></path></g><g fill="#34495e" stroke="none" stroke-width="1"><path d="M32.76643,-21.12429v-1.39h10.36v1.39c-1.34,0.9 -2.65,1.54 -3.93,1.92v0v30.87h-2.74l-17.42,-26.45l-1.87,-3.75h-0.15l0.43,3.75v22.8c1.31333,0.35333 2.54667,0.91333 3.7,1.68v0v1.39h-10.37v-1.39c0.58,-0.35333 1.19667,-0.66667 1.85,-0.94c0.65333,-0.27333 1.35,-0.52 2.09,-0.74v0v-27.51c-0.64,-0.25333 -1.27333,-0.52333 -1.9,-0.81c-0.62,-0.28667 -1.20333,-0.57667 -1.75,-0.87v0v-1.34h8.11l15.12,22.8l2.21,4.13h0.19l-0.24,-4.13v-19.49c-0.67333,-0.28667 -1.32,-0.59 -1.94,-0.91c-0.62667,-0.32 -1.21,-0.65667 -1.75,-1.01zM55.17643,9.69571v1.39h-10.65v-1.39c1.14667,-0.51333 2.29667,-0.89667 3.45,-1.15v0l12.15,-31.64h1.39l12.14,31.64c0.64,0.12667 1.27333,0.27 1.9,0.43c0.62,0.16 1.20333,0.4 1.75,0.72v0v1.39h-12.29v-1.39c0.64,-0.26 1.29667,-0.48333 1.97,-0.67c0.67333,-0.19333 1.33,-0.35333 1.97,-0.48v0l-3.27,-8.79h-11.47l-3.17,8.79c1.34667,0.18667 2.72333,0.57 4.13,1.15zM58.87643,-12.81429l-3.7,10.08h9.7l-3.79,-10.18l-0.92,-4.13h-0.09zM91.41643,1.91571l7.11,-21.84c-0.77333,-0.16 -1.49333,-0.34333 -2.16,-0.55c-0.67333,-0.20667 -1.33,-0.42333 -1.97,-0.65v0v-1.39h10.8v1.39c-0.92667,0.51333 -2.08,0.91333 -3.46,1.2v0l-10.85,31.01l-2.64,0.58l-12.24,-31.59c-0.64,-0.16 -1.26333,-0.34333 -1.87,-0.55c-0.60667,-0.20667 -1.19667,-0.42333 -1.77,-0.65v0v-1.39h12.72v1.39c-0.54667,0.22667 -1.15667,0.44333 -1.83,0.65c-0.67333,0.20667 -1.37667,0.39 -2.11,0.55v0l8.21,21.94l1.01,3.84h0.09zM106.58643,-22.51429h22.75c-0.03333,1.28 -0.09,2.56667 -0.17,3.86c-0.08,1.3 -0.2,2.60667 -0.36,3.92v0h-1.24l-1.97,-5.28h-10.47v12.72h7.83l1.87,-3.56h1.2c0.19333,3.17333 0.19333,6.40667 0,9.7v0h-1.2l-1.87,-3.65h-7.83v13.39h11.04l2.36,-5.76h1.2c0.22,1.34667 0.38,2.70667 0.48,4.08c0.09333,1.38 0.10667,2.77333 0.04,4.18v0h-23.66v-1.39c1.12,-0.51333 2.43333,-0.89667 3.94,-1.15v0v-28.47c-0.64,-0.12667 -1.29667,-0.29333 -1.97,-0.5c-0.67333,-0.20667 -1.33,-0.44 -1.97,-0.7v0zM138.36643,0.71571l1.96,7.06c0.38667,0.38 0.88333,0.70667 1.49,0.98c0.60667,0.27333 1.52,0.41 2.74,0.41v0c1.02,0 1.98,-0.13667 2.88,-0.41c0.89333,-0.27333 1.67,-0.67333 2.33,-1.2c0.65333,-0.52667 1.17333,-1.16667 1.56,-1.92c0.38,-0.75333 0.57,-1.61 0.57,-2.57v0c0,-1.28 -0.39,-2.35 -1.17,-3.21c-0.78667,-0.86667 -1.76333,-1.63667 -2.93,-2.31c-1.16667,-0.66667 -2.44,-1.32 -3.82,-1.96c-1.37333,-0.64 -2.64333,-1.4 -3.81,-2.28c-1.17333,-0.88 -2.15,-1.93667 -2.93,-3.17c-0.78667,-1.23333 -1.18,-2.77667 -1.18,-4.63v0c0,-1.34667 0.24,-2.54667 0.72,-3.6c0.48,-1.06 1.16,-1.95667 2.04,-2.69c0.88,-0.74 1.93,-1.31 3.15,-1.71c1.21333,-0.4 2.57333,-0.6 4.08,-0.6v0c1.94667,0 3.73,0.15333 5.35,0.46c1.61333,0.30667 2.88333,0.68333 3.81,1.13v0c0,0.54 -0.04,1.17 -0.12,1.89c-0.08,0.72 -0.17333,1.46667 -0.28,2.24c-0.11333,0.76667 -0.23333,1.51 -0.36,2.23c-0.13333,0.72 -0.26333,1.35 -0.39,1.89v0h-1.25l-1.92,-6.57c-0.57333,-0.26 -1.3,-0.45333 -2.18,-0.58c-0.88,-0.12667 -1.81667,-0.19 -2.81,-0.19v0c-1.63333,0 -2.94333,0.45667 -3.93,1.37c-0.99333,0.91333 -1.49,2.18333 -1.49,3.81v0c0,1.31333 0.39,2.42 1.17,3.32c0.78667,0.89333 1.77333,1.69333 2.96,2.4c1.18,0.7 2.45,1.38 3.81,2.04c1.36,0.65333 2.63333,1.41333 3.82,2.28c1.18,0.86 2.16333,1.88333 2.95,3.07c0.78667,1.18 1.18,2.65 1.18,4.41v0c0,1.44 -0.26667,2.75333 -0.8,3.94c-0.52667,1.18667 -1.28667,2.19333 -2.28,3.02c-0.98667,0.83333 -2.2,1.47333 -3.64,1.92c-1.44,0.45333 -3.07333,0.68 -4.9,0.68v0c-2.01333,0 -3.82,-0.24 -5.42,-0.72c-1.6,-0.48 -2.73667,-0.99333 -3.41,-1.54v0c0.03333,-0.54667 0.09,-1.20333 0.17,-1.97c0.08,-0.76667 0.17333,-1.55667 0.28,-2.37c0.11333,-0.82 0.23333,-1.61333 0.36,-2.38c0.13333,-0.76667 0.26333,-1.42333 0.39,-1.97v0z"></path></g><path d="M0.77643,21.66571v-54.76h165.59v54.76z" fill="#ff0000" stroke="#50e3c2" stroke-width="3" opacity="0"></path></g></g></svg>
